<svg version="1.1" xmlns="http://www.w3.org/2000/svg" width="256px" height="256px" transform="rotate(0) scale(1, 1)">
<path d="M0 0 C1.8569751 -0.00472824 1.8569751 -0.00472824 3.75146484 -0.009552 C5.11295609 -0.00776222 6.47444701 -0.00571127 7.8359375 -0.00341797 C9.22216814 -0.00409106 10.60839867 -0.00506113 11.99462891 -0.00631714 C14.90333172 -0.00779387 17.81200387 -0.00564037 20.72070312 -0.00097656 C24.45690348 0.00472073 28.19303202 0.00144159 31.92922974 -0.00454903 C34.79273016 -0.00815532 37.65621343 -0.00701574 40.51971436 -0.00442123 C41.89768482 -0.00375215 43.27565682 -0.00457973 44.65362549 -0.00690079 C46.57637504 -0.00942839 48.49913002 -0.0048957 50.421875 0 C52.06615479 0.00119339 52.06615479 0.00119339 53.74365234 0.00241089 C56.2109375 0.12939453 56.2109375 0.12939453 57.2109375 1.12939453 C57.2109375 6.07939453 57.2109375 11.02939453 57.2109375 16.12939453 C69.0909375 16.12939453 80.9709375 16.12939453 93.2109375 16.12939453 C93.2109375 18.76939453 93.2109375 21.40939453 93.2109375 24.12939453 C81.3309375 24.12939453 69.4509375 24.12939453 57.2109375 24.12939453 C57.2109375 25.44939453 57.2109375 26.76939453 57.2109375 28.12939453 C69.0909375 28.12939453 80.9709375 28.12939453 93.2109375 28.12939453 C93.2109375 30.76939453 93.2109375 33.40939453 93.2109375 36.12939453 C81.3309375 36.12939453 69.4509375 36.12939453 57.2109375 36.12939453 C57.25053151 44.97012316 57.25053151 44.97012316 57.30102539 53.81079102 C57.30352295 54.90464111 57.30602051 55.99849121 57.30859375 57.12548828 C57.31383057 58.25140381 57.31906738 59.37731934 57.32446289 60.53735352 C57.2109375 63.12939453 57.2109375 63.12939453 56.2109375 64.12939453 C54.28331933 64.22860316 52.35204396 64.25738818 50.421875 64.25878906 C49.1838916 64.26194122 47.9459082 64.26509338 46.67041016 64.26834106 C45.30891891 64.26655128 43.94742799 64.26450033 42.5859375 64.26220703 C41.19970686 64.26288012 39.81347633 64.26385019 38.42724609 64.2651062 C35.51854328 64.26658293 32.60987113 64.26442943 29.70117188 64.25976562 C25.96497152 64.25406834 22.22884298 64.25734748 18.49264526 64.26333809 C15.62914484 64.26694438 12.76566157 64.2658048 9.90216064 64.2632103 C8.52419018 64.26254122 7.14621818 64.2633688 5.76824951 64.26568985 C3.84549996 64.26821745 1.92274498 64.26368477 0 64.25878906 C-1.64427979 64.25759567 -1.64427979 64.25759567 -3.32177734 64.25637817 C-5.7890625 64.12939453 -5.7890625 64.12939453 -6.7890625 63.12939453 C-6.87664253 61.12974471 -6.89602826 59.12703343 -6.88671875 57.12548828 C-6.88349609 55.91054687 -6.88027344 54.69560547 -6.87695312 53.44384766 C-6.86438477 51.52475586 -6.86438477 51.52475586 -6.8515625 49.56689453 C-6.84705078 48.28363281 -6.84253906 47.00037109 -6.83789062 45.67822266 C-6.82605795 42.49523431 -6.80957318 39.31233691 -6.7890625 36.12939453 C-9.4290625 36.12939453 -12.0690625 36.12939453 -14.7890625 36.12939453 C-14.7890625 71.76939453 -14.7890625 107.40939453 -14.7890625 144.12939453 C43.2909375 144.12939453 101.3709375 144.12939453 161.2109375 144.12939453 C161.2109375 107.16939453 161.2109375 70.20939453 161.2109375 32.12939453 C163.8509375 32.12939453 166.4909375 32.12939453 169.2109375 32.12939453 C169.23426696 47.62779309 169.25191691 63.12619035 169.26274967 78.62460232 C169.26791253 85.82029748 169.27495503 93.01598175 169.28637695 100.21166992 C169.2963241 106.48124148 169.302791 112.75080515 169.30502599 119.02038437 C169.30633305 122.34205074 169.30993747 125.66368919 169.31666756 128.98534966 C169.32387378 132.687594 169.32492862 136.38979084 169.32446289 140.09204102 C169.32805817 141.20118362 169.33165344 142.31032623 169.33535767 143.45307922 C169.333983 144.45573822 169.33260834 145.45839722 169.33119202 146.49143982 C169.33257471 147.80637751 169.33257471 147.80637751 169.33398533 149.1478796 C169.2109375 151.12939453 169.2109375 151.12939453 168.2109375 152.12939453 C165.7595294 152.22930789 163.33623589 152.26381293 160.88427734 152.25637817 C160.10825354 152.25793816 159.33222973 152.25949816 158.53269005 152.26110542 C155.91239948 152.26511849 153.29216608 152.2619246 150.671875 152.25878906 C148.80145229 152.26014297 146.93102984 152.26192284 145.06060791 152.26409912 C139.96571454 152.26867474 134.87084132 152.26688337 129.77594757 152.26372004 C124.45658817 152.26119709 119.13723056 152.26353379 113.81787109 152.2651062 C104.88313485 152.26692809 95.94840686 152.26452108 87.01367188 152.25976562 C76.66800208 152.25432297 66.32235198 152.25608561 55.97668266 152.26159203 C47.11132577 152.26612261 38.24597482 152.26677398 29.38061714 152.26415336 C24.07818402 152.26259028 18.77576017 152.26239766 13.47332764 152.26568985 C8.48955101 152.26856777 3.50579991 152.26659434 -1.47797394 152.26079559 C-3.31264453 152.25946757 -5.14731724 152.25986283 -6.981987 152.26205826 C-9.47548829 152.26476811 -11.96890643 152.26139069 -14.46240234 152.25637817 C-15.56593017 152.25972426 -15.56593017 152.25972426 -16.69175148 152.26313794 C-21.67491265 152.24354439 -21.67491265 152.24354439 -22.7890625 151.12939453 C-22.88717385 149.55016724 -22.91538142 147.9665492 -22.91604614 146.38427734 C-22.91886597 145.35782104 -22.92168579 144.33136475 -22.92459106 143.27380371 C-22.92256683 142.13817993 -22.9205426 141.00255615 -22.91845703 139.83251953 C-22.92020935 138.64404419 -22.92196167 137.45556885 -22.92376709 136.2310791 C-22.9274252 132.96256677 -22.92655222 129.69409465 -22.923388 126.42558289 C-22.92086397 123.0120739 -22.92320206 119.59856768 -22.92477417 116.18505859 C-22.92659574 110.45165522 -22.92418989 104.71826471 -22.91943359 98.98486328 C-22.91399099 92.34733677 -22.91575366 85.70984098 -22.92126 79.07231522 C-22.92579149 73.38315187 -22.9264415 67.69399779 -22.92382133 62.00483322 C-22.92225876 58.60270433 -22.92206425 55.20058989 -22.92535782 51.79846191 C-22.92788259 48.00770965 -22.92404621 44.2170173 -22.91845703 40.42626953 C-22.92048126 39.29064575 -22.92250549 38.15502197 -22.92459106 36.98498535 C-22.92036133 35.4453009 -22.92036133 35.4453009 -22.91604614 33.87451172 C-22.91566912 32.97706238 -22.91529209 32.07961304 -22.91490364 31.15496826 C-22.7890625 29.12939453 -22.7890625 29.12939453 -21.7890625 28.12939453 C-19.25856848 28.05625887 -16.75601413 28.03691926 -14.2265625 28.06689453 C-13.16018555 28.07366211 -13.16018555 28.07366211 -12.07226562 28.08056641 C-10.31116237 28.09238589 -8.55010214 28.1103219 -6.7890625 28.12939453 C-6.7890625 26.80939453 -6.7890625 25.48939453 -6.7890625 24.12939453 C-13.3890625 24.12939453 -19.9890625 24.12939453 -26.7890625 24.12939453 C-26.7890625 67.68939453 -26.7890625 111.24939453 -26.7890625 156.12939453 C39.2109375 156.12939453 105.2109375 156.12939453 173.2109375 156.12939453 C173.2109375 113.88939453 173.2109375 71.64939453 173.2109375 28.12939453 C175.8509375 28.12939453 178.4909375 28.12939453 181.2109375 28.12939453 C181.2109375 70.36939453 181.2109375 112.60939453 181.2109375 156.12939453 C186.1609375 156.12939453 191.1109375 156.12939453 196.2109375 156.12939453 C198.74967462 158.66813165 197.54240704 165.41162527 197.5859375 168.81689453 C197.64201172 170.45174805 197.64201172 170.45174805 197.69921875 172.11962891 C197.79831632 181.16503445 197.79831632 181.16503445 194.8125 184.83642578 C190.39755439 188.72767665 186.78495404 188.28016757 181.1272583 188.28329468 C179.69771824 188.28986806 179.69771824 188.28986806 178.23929858 188.29657423 C175.02574139 188.30999596 171.81221164 188.31614865 168.59863281 188.32226562 C166.30268224 188.3301639 164.00673291 188.33843268 161.71078491 188.3470459 C154.15355622 188.37329665 146.5963219 188.38857608 139.0390625 188.40283203 C136.44078314 188.40819036 133.84250383 188.41356786 131.24422455 188.41896439 C120.43885885 188.44059713 109.63349548 188.45948656 98.82811356 188.47058678 C96.02342983 188.47351652 93.21874614 188.47647818 90.4140625 188.47949219 C89.71696351 188.48023824 89.01986452 188.48098429 88.30164132 188.48175295 C77.00872313 188.49440692 65.71596237 188.52762995 54.42311779 188.56929402 C42.83135429 188.61171064 31.23967974 188.63487382 19.64783931 188.64050734 C13.138457 188.64416644 6.62934151 188.65624747 0.12003326 188.68861008 C-6.00312347 188.71861595 -12.1258509 188.72502901 -18.2490654 188.71322632 C-20.4976931 188.71300496 -22.74634029 188.721361 -24.99489975 188.73888016 C-28.0629365 188.76148477 -31.12940511 188.7533165 -34.19744873 188.73739624 C-35.08908934 188.75127833 -35.98072996 188.76516042 -36.89938998 188.77946317 C-41.17152621 188.72477285 -43.93666279 188.45046816 -47.32603836 185.71639442 C-50.74070018 182.12985639 -50.91636195 180.55143046 -50.921875 175.71923828 C-50.92316406 174.64738281 -50.92445312 173.57552734 -50.92578125 172.47119141 C-50.92191406 171.34777344 -50.91804688 170.22435547 -50.9140625 169.06689453 C-50.91792969 167.93960938 -50.92179687 166.81232422 -50.92578125 165.65087891 C-50.92449219 164.5803125 -50.92320313 163.50974609 -50.921875 162.40673828 C-50.92074707 161.41923584 -50.91961914 160.4317334 -50.91845703 159.41430664 C-50.7890625 157.12939453 -50.7890625 157.12939453 -49.7890625 156.12939453 C-47.25856848 156.05625887 -44.75601413 156.03691926 -42.2265625 156.06689453 C-41.51564453 156.07140625 -40.80472656 156.07591797 -40.07226562 156.08056641 C-38.31116237 156.09238589 -36.55010214 156.1103219 -34.7890625 156.12939453 C-34.78998429 155.41394753 -34.79090609 154.69850054 -34.79185581 153.96137333 C-34.81391024 136.57797073 -34.83047366 119.19457167 -34.84087467 101.81115818 C-34.84603781 93.40478069 -34.85308084 84.99841252 -34.86450195 76.59204102 C-34.87444825 69.26771521 -34.8809158 61.94339616 -34.88315099 54.61906379 C-34.88445819 50.73848666 -34.88754462 46.85792883 -34.89479256 42.97735786 C-34.90155192 39.32899896 -34.90367963 35.68066743 -34.90217018 32.03230286 C-34.90257887 30.04651034 -34.9079745 28.06072084 -34.91348267 26.07493591 C-34.912108 24.90399384 -34.91073334 23.73305176 -34.90931702 22.52662659 C-34.91023881 21.50251458 -34.9111606 20.47840258 -34.91211033 19.42325687 C-34.7890625 17.12939453 -34.7890625 17.12939453 -33.7890625 16.12939453 C-31.78941268 16.0418145 -29.7867014 16.02242877 -27.78515625 16.03173828 C-26.57021484 16.03496094 -25.35527344 16.03818359 -24.10351562 16.04150391 C-22.82412109 16.04988281 -21.54472656 16.05826172 -20.2265625 16.06689453 C-18.94330078 16.07140625 -17.66003906 16.07591797 -16.33789062 16.08056641 C-13.15490228 16.09239908 -9.97200488 16.10888385 -6.7890625 16.12939453 C-6.80066406 15.05818359 -6.81226563 13.98697266 -6.82421875 12.88330078 C-6.83359549 11.4861671 -6.84269581 10.08903154 -6.8515625 8.69189453 C-6.85994141 7.98484375 -6.86832031 7.27779297 -6.87695312 6.54931641 C-6.88559838 4.74245894 -6.84126261 2.9355185 -6.7890625 1.12939453 C-5.00989783 -0.64977014 -2.40592951 0.00174618 0 0 Z M1.2109375 8.12939453 C1.2109375 23.96939453 1.2109375 39.80939453 1.2109375 56.12939453 C17.0509375 56.12939453 32.8909375 56.12939453 49.2109375 56.12939453 C49.2109375 40.28939453 49.2109375 24.44939453 49.2109375 8.12939453 C33.3709375 8.12939453 17.5309375 8.12939453 1.2109375 8.12939453 Z M-42.7890625 164.12939453 C-42.7890625 168.08939453 -42.7890625 172.04939453 -42.7890625 176.12939453 C-39.1818492 180.20420162 -39.1818492 180.20420162 -34.80975342 180.63275909 C-33.63108641 180.64840558 -33.63108641 180.64840558 -32.42860794 180.66436815 C-31.57141537 180.65544527 -30.71422279 180.64652238 -29.83105469 180.6373291 C-28.91574352 180.64356906 -28.00043236 180.64980903 -27.05738449 180.65623808 C-23.98330857 180.67222204 -20.91001963 180.65954256 -17.8359375 180.64697266 C-15.63496436 180.65239136 -13.43399484 180.6595126 -11.23303223 180.66821289 C-5.24963014 180.68647894 0.73349667 180.67936505 6.71690369 180.66669655 C12.97175857 180.65658593 19.22658952 180.66595683 25.48144531 180.67224121 C36.65968962 180.67999001 47.83783266 180.66754113 59.01605272 180.64720386 C69.15269107 180.62933262 79.2891462 180.63243666 89.42578125 180.65087891 C101.19517155 180.67228168 112.96447258 180.68025482 124.7338829 180.66842985 C130.9647639 180.66218618 137.19551866 180.66138336 143.4263916 180.67457581 C149.28364151 180.68611041 155.14054461 180.67815204 160.99775696 180.65499878 C163.15045088 180.64969894 165.30317387 180.65124713 167.45585632 180.66004944 C170.38861133 180.67093797 173.32024655 180.65732212 176.25292969 180.6373291 C177.53871855 180.65071343 177.53871855 180.65071343 178.85048294 180.66436815 C180.02914995 180.64872167 180.02914995 180.64872167 181.23162842 180.63275909 C182.24678591 180.63178498 182.24678591 180.63178498 183.28245163 180.63079119 C185.88858022 180.12698636 185.88858022 180.12698636 189.2109375 176.12939453 C189.2109375 172.16939453 189.2109375 168.20939453 189.2109375 164.12939453 C112.6509375 164.12939453 36.0909375 164.12939453 -42.7890625 164.12939453 Z " fill="#ffdb6e" transform="translate(54.7890625,63.87060546875)"/>
<path d="M0 0 C0.98484375 -0.00128906 1.9696875 -0.00257812 2.984375 -0.00390625 C4.02078125 -0.00003906 5.0571875 0.00382813 6.125 0.0078125 C7.67960937 0.00201172 7.67960937 0.00201172 9.265625 -0.00390625 C10.25046875 -0.00261719 11.2353125 -0.00132813 12.25 0 C13.16007812 0.00112793 14.07015625 0.00225586 15.0078125 0.00341797 C17.125 0.1328125 17.125 0.1328125 18.125 1.1328125 C18.57959858 3.78744371 18.82743238 6.45470388 19.125 9.1328125 C22.095 10.1228125 22.095 10.1228125 25.125 11.1328125 C25.681875 10.4728125 26.23875 9.8128125 26.8125 9.1328125 C29.125 7.1328125 29.125 7.1328125 31.34375 6.62109375 C35.69345229 7.4213901 37.93531394 10.21771888 40.9375 13.3203125 C41.53498047 13.89845703 42.13246094 14.47660156 42.74804688 15.07226562 C46.97977263 19.35235396 46.97977263 19.35235396 47.63671875 22.8828125 C46.92581762 26.00860678 45.25924233 27.79848495 43.125 30.1328125 C44.115 32.6078125 44.115 32.6078125 45.125 35.1328125 C46.424375 35.2771875 47.72375 35.4215625 49.0625 35.5703125 C53 36.0078125 53 36.0078125 54.125 37.1328125 C54.2241657 38.75538794 54.25579777 40.38221081 54.2578125 42.0078125 C54.25910156 42.99265625 54.26039063 43.9775 54.26171875 44.9921875 C54.25785156 46.02859375 54.25398438 47.065 54.25 48.1328125 C54.25386719 49.16921875 54.25773437 50.205625 54.26171875 51.2734375 C54.26042969 52.25828125 54.25914062 53.243125 54.2578125 54.2578125 C54.25668457 55.16789062 54.25555664 56.07796875 54.25439453 57.015625 C54.125 59.1328125 54.125 59.1328125 53.125 60.1328125 C50.47036879 60.58741108 47.80310862 60.83524488 45.125 61.1328125 C44.465 63.1128125 43.805 65.0928125 43.125 67.1328125 C43.785 67.6896875 44.445 68.2465625 45.125 68.8203125 C47.125 71.1328125 47.125 71.1328125 47.63671875 73.3515625 C46.8364224 77.70126479 44.04009362 79.94312644 40.9375 82.9453125 C40.0702832 83.8415332 40.0702832 83.8415332 39.18554688 84.75585938 C34.90545854 88.98758513 34.90545854 88.98758513 31.375 89.64453125 C28.24920572 88.93363012 26.45932755 87.26705483 24.125 85.1328125 C22.475 85.7928125 20.825 86.4528125 19.125 87.1328125 C18.980625 88.4321875 18.83625 89.7315625 18.6875 91.0703125 C18.25 95.0078125 18.25 95.0078125 17.125 96.1328125 C15.50242456 96.2319782 13.87560169 96.26361027 12.25 96.265625 C11.26515625 96.26691406 10.2803125 96.26820312 9.265625 96.26953125 C8.22921875 96.26566406 7.1928125 96.26179688 6.125 96.2578125 C4.57039063 96.26361328 4.57039063 96.26361328 2.984375 96.26953125 C1.99953125 96.26824219 1.0146875 96.26695313 0 96.265625 C-0.91007812 96.26449707 -1.82015625 96.26336914 -2.7578125 96.26220703 C-4.875 96.1328125 -4.875 96.1328125 -5.875 95.1328125 C-6.32959858 92.47818129 -6.57743238 89.81092112 -6.875 87.1328125 C-9.845 86.1428125 -9.845 86.1428125 -12.875 85.1328125 C-13.431875 85.7928125 -13.98875 86.4528125 -14.5625 87.1328125 C-16.875 89.1328125 -16.875 89.1328125 -19.09375 89.64453125 C-23.44345229 88.8442349 -25.68531394 86.04790612 -28.6875 82.9453125 C-29.28498047 82.36716797 -29.88246094 81.78902344 -30.49804688 81.19335938 C-34.72977263 76.91327104 -34.72977263 76.91327104 -35.38671875 73.3828125 C-34.67581762 70.25701822 -33.00924233 68.46714005 -30.875 66.1328125 C-31.535 64.4828125 -32.195 62.8328125 -32.875 61.1328125 C-34.174375 60.9884375 -35.47375 60.8440625 -36.8125 60.6953125 C-40.75 60.2578125 -40.75 60.2578125 -41.875 59.1328125 C-41.9741657 57.51023706 -42.00579777 55.88341419 -42.0078125 54.2578125 C-42.00910156 53.27296875 -42.01039063 52.288125 -42.01171875 51.2734375 C-42.00785156 50.23703125 -42.00398437 49.200625 -42 48.1328125 C-42.00580078 46.57820313 -42.00580078 46.57820313 -42.01171875 44.9921875 C-42.01042969 44.00734375 -42.00914062 43.0225 -42.0078125 42.0078125 C-42.00668457 41.09773438 -42.00555664 40.18765625 -42.00439453 39.25 C-41.875 37.1328125 -41.875 37.1328125 -40.875 36.1328125 C-38.22036879 35.67821392 -35.55310862 35.43038012 -32.875 35.1328125 C-32.215 33.1528125 -31.555 31.1728125 -30.875 29.1328125 C-31.535 28.5759375 -32.195 28.0190625 -32.875 27.4453125 C-34.875 25.1328125 -34.875 25.1328125 -35.38671875 22.9140625 C-34.5864224 18.56436021 -31.79009362 16.32249856 -28.6875 13.3203125 C-28.10935547 12.72283203 -27.53121094 12.12535156 -26.93554688 11.50976562 C-22.65545854 7.27803987 -22.65545854 7.27803987 -19.125 6.62109375 C-15.99920572 7.33199488 -14.20932755 8.99857017 -11.875 11.1328125 C-10.225 10.4728125 -8.575 9.8128125 -6.875 9.1328125 C-6.730625 7.8334375 -6.58625 6.5340625 -6.4375 5.1953125 C-5.86997775 0.08761226 -5.10339405 0.00632503 0 0 Z M2.125 8.1328125 C1.795 10.7728125 1.465 13.4128125 1.125 16.1328125 C-0.76591736 16.97724131 -2.66297515 17.80792837 -4.5625 18.6328125 C-5.61824219 19.096875 -6.67398438 19.5609375 -7.76171875 20.0390625 C-10.76614515 21.09456989 -12.7333952 21.4818797 -15.875 21.1328125 C-18.1875 19.6328125 -18.1875 19.6328125 -19.875 18.1328125 C-21.195 19.7828125 -22.515 21.4328125 -23.875 23.1328125 C-23.359375 23.4834375 -22.84375 23.8340625 -22.3125 24.1953125 C-20.875 26.1328125 -20.875 26.1328125 -20.9375 29.1953125 C-21.85831983 34.07147207 -23.91375894 38.59915294 -25.875 43.1328125 C-28.515 43.4628125 -31.155 43.7928125 -33.875 44.1328125 C-33.875 46.7728125 -33.875 49.4128125 -33.875 52.1328125 C-31.235 52.4628125 -28.595 52.7928125 -25.875 53.1328125 C-25.03057119 55.02372986 -24.19988413 56.92078765 -23.375 58.8203125 C-22.9109375 59.87605469 -22.446875 60.93179688 -21.96875 62.01953125 C-20.91324261 65.02395765 -20.5259328 66.9912077 -20.875 70.1328125 C-22.375 72.4453125 -22.375 72.4453125 -23.875 74.1328125 C-22.225 75.4528125 -20.575 76.7728125 -18.875 78.1328125 C-18.524375 77.6171875 -18.17375 77.1015625 -17.8125 76.5703125 C-15.875 75.1328125 -15.875 75.1328125 -12.8125 75.1953125 C-7.93634043 76.11613233 -3.40865956 78.17157144 1.125 80.1328125 C1.62 84.0928125 1.62 84.0928125 2.125 88.1328125 C4.765 88.1328125 7.405 88.1328125 10.125 88.1328125 C10.455 85.4928125 10.785 82.8528125 11.125 80.1328125 C13.01591736 79.28838369 14.91297515 78.45769663 16.8125 77.6328125 C18.39611328 76.93671875 18.39611328 76.93671875 20.01171875 76.2265625 C23.01614515 75.17105511 24.9833952 74.7837453 28.125 75.1328125 C30.4375 76.6328125 30.4375 76.6328125 32.125 78.1328125 C33.445 76.4828125 34.765 74.8328125 36.125 73.1328125 C35.609375 72.5965625 35.09375 72.0603125 34.5625 71.5078125 C33.125 69.1328125 33.125 69.1328125 33.1875 66.5078125 C34.4692257 61.89359996 36.25397634 57.53624492 38.125 53.1328125 C40.765 52.8028125 43.405 52.4728125 46.125 52.1328125 C46.125 49.4928125 46.125 46.8528125 46.125 44.1328125 C43.485 43.8028125 40.845 43.4728125 38.125 43.1328125 C37.28057119 41.24189514 36.44988413 39.34483735 35.625 37.4453125 C35.1609375 36.38957031 34.696875 35.33382812 34.21875 34.24609375 C33.16324261 31.24166735 32.7759328 29.2744173 33.125 26.1328125 C34.625 23.8203125 34.625 23.8203125 36.125 22.1328125 C34.475 20.8128125 32.825 19.4928125 31.125 18.1328125 C30.58875 18.6484375 30.0525 19.1640625 29.5 19.6953125 C27.125 21.1328125 27.125 21.1328125 24.5 21.0703125 C19.88578746 19.7885868 15.52843242 18.00383616 11.125 16.1328125 C10.63 12.1728125 10.63 12.1728125 10.125 8.1328125 C7.485 8.1328125 4.845 8.1328125 2.125 8.1328125 Z " fill="#ffdb5e" transform="translate(189.875,3.8671875)"/>
<path d="M0 0 C1.8569751 -0.00472824 1.8569751 -0.00472824 3.75146484 -0.009552 C5.11295609 -0.00776222 6.47444701 -0.00571127 7.8359375 -0.00341797 C9.22216814 -0.00409106 10.60839867 -0.00506113 11.99462891 -0.00631714 C14.90333172 -0.00779387 17.81200387 -0.00564037 20.72070312 -0.00097656 C24.45690348 0.00472073 28.19303202 0.00144159 31.92922974 -0.00454903 C34.79273016 -0.00815532 37.65621343 -0.00701574 40.51971436 -0.00442123 C41.89768482 -0.00375215 43.27565682 -0.00457973 44.65362549 -0.00690079 C46.57637504 -0.00942839 48.49913002 -0.0048957 50.421875 0 C52.06615479 0.00119339 52.06615479 0.00119339 53.74365234 0.00241089 C56.2109375 0.12939453 56.2109375 0.12939453 57.2109375 1.12939453 C57.31014613 3.0570127 57.33893115 4.98828807 57.34033203 6.91845703 C57.34348419 8.15644043 57.34663635 9.39442383 57.34988403 10.66992188 C57.34809425 12.03141312 57.3460433 13.39290404 57.34375 14.75439453 C57.34442309 16.14062517 57.34539316 17.5268557 57.34664917 18.91308594 C57.3481259 21.82178875 57.3459724 24.7304609 57.34130859 27.63916016 C57.33561131 31.37536052 57.33889044 35.11148905 57.34488106 38.84768677 C57.34848735 41.71118719 57.34734777 44.57467046 57.34475327 47.43817139 C57.34408418 48.81614185 57.34491176 50.19411385 57.34723282 51.57208252 C57.34976042 53.49483207 57.34522774 55.41758705 57.34033203 57.34033203 C57.33953644 58.43651855 57.33874084 59.53270508 57.33792114 60.66210938 C57.2109375 63.12939453 57.2109375 63.12939453 56.2109375 64.12939453 C54.28331933 64.22860316 52.35204396 64.25738818 50.421875 64.25878906 C49.1838916 64.26194122 47.9459082 64.26509338 46.67041016 64.26834106 C45.30891891 64.26655128 43.94742799 64.26450033 42.5859375 64.26220703 C41.19970686 64.26288012 39.81347633 64.26385019 38.42724609 64.2651062 C35.51854328 64.26658293 32.60987113 64.26442943 29.70117188 64.25976562 C25.96497152 64.25406834 22.22884298 64.25734748 18.49264526 64.26333809 C15.62914484 64.26694438 12.76566157 64.2658048 9.90216064 64.2632103 C8.52419018 64.26254122 7.14621818 64.2633688 5.76824951 64.26568985 C3.84549996 64.26821745 1.92274498 64.26368477 0 64.25878906 C-1.64427979 64.25759567 -1.64427979 64.25759567 -3.32177734 64.25637817 C-5.7890625 64.12939453 -5.7890625 64.12939453 -6.7890625 63.12939453 C-6.88827113 61.20177636 -6.91705615 59.27050099 -6.91845703 57.34033203 C-6.92160919 56.10234863 -6.92476135 54.86436523 -6.92800903 53.58886719 C-6.92621925 52.22737594 -6.9241683 50.86588502 -6.921875 49.50439453 C-6.92254809 48.11816389 -6.92351816 46.73193336 -6.92477417 45.34570312 C-6.9262509 42.43700031 -6.9240974 39.52832816 -6.91943359 36.61962891 C-6.91373631 32.88342855 -6.91701544 29.14730002 -6.92300606 25.41110229 C-6.92661235 22.54760187 -6.92547277 19.6841186 -6.92287827 16.82061768 C-6.92220918 15.44264721 -6.92303676 14.06467521 -6.92535782 12.68670654 C-6.92788542 10.76395699 -6.92335274 8.84120201 -6.91845703 6.91845703 C-6.91766144 5.82227051 -6.91686584 4.72608398 -6.91604614 3.59667969 C-6.67588624 -1.0696139 -4.08665629 0.00296602 0 0 Z M1.2109375 8.12939453 C1.2109375 23.96939453 1.2109375 39.80939453 1.2109375 56.12939453 C17.0509375 56.12939453 32.8909375 56.12939453 49.2109375 56.12939453 C49.2109375 40.28939453 49.2109375 24.44939453 49.2109375 8.12939453 C33.3709375 8.12939453 17.5309375 8.12939453 1.2109375 8.12939453 Z " fill="#ffdb6e" transform="translate(54.7890625,135.87060546875)"/>
<path d="M0 0 C2.64 0 5.28 0 8 0 C8 1.32 8 2.64 8 4 C9.03125 4.103125 10.0625 4.20625 11.125 4.3125 C15 5 15 5 18.1875 6.6875 C20.88967584 8.34435367 20.88967584 8.34435367 23.375 7.1875 C23.91125 6.795625 24.4475 6.40375 25 6 C27.475 8.475 27.475 8.475 30 11 C29.38125 11.99 29.38125 11.99 28.75 13 C27.75022647 16.99909412 29.00659396 18.61036407 31.0546875 22.03515625 C32 24 32 24 32 28 C33.32 28 34.64 28 36 28 C36 30.64 36 33.28 36 36 C34.68 36 33.36 36 32 36 C31.896875 37.03125 31.79375 38.0625 31.6875 39.125 C31 43 31 43 29.3125 46.1875 C27.65564633 48.88967584 27.65564633 48.88967584 28.8125 51.375 C29.204375 51.91125 29.59625 52.4475 30 53 C28.35 54.65 26.7 56.3 25 58 C24.34 57.5875 23.68 57.175 23 56.75 C19.00090588 55.75022647 17.38963593 57.00659396 13.96484375 59.0546875 C12 60 12 60 8 60 C8 61.32 8 62.64 8 64 C5.36 64 2.72 64 0 64 C0 62.68 0 61.36 0 60 C-1.03125 59.896875 -2.0625 59.79375 -3.125 59.6875 C-7 59 -7 59 -10.1875 57.3125 C-12.88967584 55.65564633 -12.88967584 55.65564633 -15.375 56.8125 C-15.91125 57.204375 -16.4475 57.59625 -17 58 C-18.65 56.35 -20.3 54.7 -22 53 C-21.5875 52.34 -21.175 51.68 -20.75 51 C-19.75022647 47.00090588 -21.00659396 45.38963593 -23.0546875 41.96484375 C-24 40 -24 40 -24 36 C-25.32 36 -26.64 36 -28 36 C-28 33.36 -28 30.72 -28 28 C-26.68 28 -25.36 28 -24 28 C-23.896875 26.96875 -23.79375 25.9375 -23.6875 24.875 C-23 21 -23 21 -21.3125 17.8125 C-19.65564633 15.11032416 -19.65564633 15.11032416 -20.8125 12.625 C-21.204375 12.08875 -21.59625 11.5525 -22 11 C-20.35 9.35 -18.7 7.7 -17 6 C-16.34 6.4125 -15.68 6.825 -15 7.25 C-11.00090588 8.24977353 -9.38963593 6.99340604 -5.96484375 4.9453125 C-4 4 -4 4 0 4 C0 2.68 0 1.36 0 0 Z M-13 21.5625 C-15.91388882 26.80551763 -15.95610282 32.17717706 -15 38 C-13.04435326 43.44530996 -9.40701267 47.34964702 -4.37109375 50.1484375 C1.10252183 52.11425002 6.89747817 52.11425002 12.37109375 50.1484375 C17.40701267 47.34964702 21.04435326 43.44530996 23 38 C23.95610282 32.17717706 23.91388882 26.80551763 21 21.5625 C17.29470996 16.6186729 13.26732629 13.53649234 7.09765625 12.5234375 C-1.74979717 12.09947378 -7.65836177 14.43535595 -13 21.5625 Z " fill="#ffdb6e" transform="translate(176,104)"/>
<path d="M0 0 C7.22538503 4.30603754 11.61183794 10.13263188 14.4375 18 C15.58377924 27.37083278 15.35041227 36.25894094 9.4375 44 C4.17173342 49.79454649 -1.46288906 53.49851854 -9.39453125 54.46875 C-18.96468152 54.54388366 -26.27935606 53.80103194 -33.6171875 47.1328125 C-40.09535088 40.22456359 -42.12992353 33.50211038 -42.04296875 24.06860352 C-41.74395838 15.54582427 -38.83865527 9.83070397 -32.6875 4.0625 C-23.90268227 -3.41745987 -10.46364874 -4.75036814 0 0 Z M-30.5625 15.5625 C-33.47638882 20.80551763 -33.51860282 26.17717706 -32.5625 32 C-30.60685326 37.44530996 -26.96951267 41.34964702 -21.93359375 44.1484375 C-16.45997817 46.11425002 -10.66502183 46.11425002 -5.19140625 44.1484375 C-0.15548733 41.34964702 3.48185326 37.44530996 5.4375 32 C6.39360282 26.17717706 6.35138882 20.80551763 3.4375 15.5625 C-0.26779004 10.6186729 -4.29517371 7.53649234 -10.46484375 6.5234375 C-19.31229717 6.09947378 -25.22086177 8.43535595 -30.5625 15.5625 Z " fill="#ffdb6e" transform="translate(209.5625,26)"/>
<path d="M0 0 C3.68069887 1.53643852 5.98775204 3.78150945 8.75 6.625 C9.54921875 7.44226563 10.3484375 8.25953125 11.171875 9.1015625 C11.77515625 9.72804687 12.3784375 10.35453125 13 11 C16.68069887 9.46356148 18.98775204 7.21849055 21.75 4.375 C22.54921875 3.55773437 23.3484375 2.74046875 24.171875 1.8984375 C24.77515625 1.27195313 25.3784375 0.64546875 26 0 C28.8605891 1.35937085 30.85927699 2.64520469 33 5 C31.46356148 8.68069887 29.21849055 10.98775204 26.375 13.75 C25.55773437 14.54921875 24.74046875 15.3484375 23.8984375 16.171875 C23.27195312 16.77515625 22.64546875 17.3784375 22 18 C23.53643852 21.68069887 25.78150945 23.98775204 28.625 26.75 C29.44226563 27.54921875 30.25953125 28.3484375 31.1015625 29.171875 C31.72804687 29.77515625 32.35453125 30.3784375 33 31 C31.64062915 33.8605891 30.35479531 35.85927699 28 38 C24.31930113 36.46356148 22.01224796 34.21849055 19.25 31.375 C18.45078125 30.55773437 17.6515625 29.74046875 16.828125 28.8984375 C16.22484375 28.27195313 15.6215625 27.64546875 15 27 C11.31930113 28.53643852 9.01224796 30.78150945 6.25 33.625 C5.45078125 34.44226563 4.6515625 35.25953125 3.828125 36.1015625 C3.22484375 36.72804687 2.6215625 37.35453125 2 38 C-0.8605891 36.64062915 -2.85927699 35.35479531 -5 33 C-3.46356148 29.31930113 -1.21849055 27.01224796 1.625 24.25 C2.44226563 23.45078125 3.25953125 22.6515625 4.1015625 21.828125 C4.72804688 21.22484375 5.35453125 20.6215625 6 20 C4.46356148 16.31930113 2.21849055 14.01224796 -0.625 11.25 C-1.44226563 10.45078125 -2.25953125 9.6515625 -3.1015625 8.828125 C-3.72804687 8.22484375 -4.35453125 7.6215625 -5 7 C-3.64062915 4.1394109 -2.35479531 2.14072301 0 0 Z " fill="#ffbc5e" transform="translate(66,149)"/>
<path d="M0 0 C4.8846525 2.26787438 7.73212562 5.1153475 10 10 C10.75381535 15.5997712 10.77303575 20.33499991 8.375 25.5 C3.80134327 30.3143755 0.6912538 32.25156236 -6 32.5 C-12.6912538 32.25156236 -15.80134327 30.3143755 -20.375 25.5 C-22.77303575 20.33499991 -22.75381535 15.5997712 -22 10 C-17.52212837 0.3553534 -9.85292056 -1.32635469 0 0 Z M-11.375 10.625 C-13.48706506 13.71186432 -13.61195145 15.3282913 -13 19 C-11.5 21.5 -11.5 21.5 -9 23 C-5.3282913 23.61195145 -3.71186432 23.48706506 -0.625 21.375 C1.48706506 18.28813568 1.61195145 16.6717087 1 13 C-0.5 10.5 -0.5 10.5 -3 9 C-6.6717087 8.38804855 -8.28813568 8.51293494 -11.375 10.625 Z " fill="#ffdb6e" transform="translate(186,120)"/>
<path d="M0 0 C2.64 1.32 5.28 2.64 8 4 C6.72538634 7.3691781 5.27486167 10.42215393 3.42578125 13.51171875 C2.92643066 14.34799805 2.42708008 15.18427734 1.91259766 16.04589844 C-0.23113469 19.58498663 -2.37951621 23.12086234 -4.54931641 26.64404297 C-5.42202859 28.06135575 -6.29033021 29.48141803 -7.14990234 30.90673828 C-8.03567854 32.36842241 -8.95339418 33.8106381 -9.875 35.25 C-10.34679687 35.99765625 -10.81859375 36.7453125 -11.3046875 37.515625 C-13 39 -13 39 -15.765625 39.765625 C-20.93636018 38.54163455 -22.9212048 34.70347779 -25.875 30.5 C-26.46796875 29.68917969 -27.0609375 28.87835938 -27.671875 28.04296875 C-29.13244296 26.04057719 -30.5737041 24.02687492 -32 22 C-29.75 19.5 -29.75 19.5 -27 17 C-25.68 17 -24.36 17 -23 17 C-21.296875 18.75 -21.296875 18.75 -19.75 21 C-19.22921875 21.7425 -18.7084375 22.485 -18.171875 23.25 C-17.59179688 24.11625 -17.59179688 24.11625 -17 25 C-14.12426356 22.29768258 -12.01375084 19.66960637 -10.01953125 16.26953125 C-9.49552734 15.38458984 -8.97152344 14.49964844 -8.43164062 13.58789062 C-7.89732422 12.67201172 -7.36300781 11.75613281 -6.8125 10.8125 C-5.73682738 8.98499953 -4.66006367 7.15814069 -3.58203125 5.33203125 C-2.87397339 4.12123901 -2.87397339 4.12123901 -2.15161133 2.88598633 C-1 1 -1 1 0 0 Z " fill="#ffbc5e" transform="translate(92,77)"/>
</svg>